<?xml version="1.0" encoding="UTF-8" standalone="no"?>
<svg
   xmlns:dc="http://purl.org/dc/elements/1.1/"
   xmlns:cc="http://creativecommons.org/ns#"
   xmlns:rdf="http://www.w3.org/1999/02/22-rdf-syntax-ns#"
   xmlns:svg="http://www.w3.org/2000/svg"
   xmlns="http://www.w3.org/2000/svg"
   xmlns:sodipodi="http://sodipodi.sourceforge.net/DTD/sodipodi-0.dtd"
   xmlns:inkscape="http://www.inkscape.org/namespaces/inkscape"
   version="1.1"
   viewBox="0 0 256 256"
   id="svg1337"
   sodipodi:docname="envelope_grey.svg"
   inkscape:version="1.0.1 (c497b03c, 2020-09-10)">
  <metadata
     id="metadata1343">
    <rdf:RDF>
      <cc:Work
         rdf:about="">
        <dc:format>image/svg+xml</dc:format>
        <dc:type
           rdf:resource="http://purl.org/dc/dcmitype/StillImage" />
      </cc:Work>
    </rdf:RDF>
  </metadata>
  <defs
     id="defs1341" />
  <sodipodi:namedview
     pagecolor="#ffffff"
     bordercolor="#666666"
     borderopacity="1"
     objecttolerance="10"
     gridtolerance="10"
     guidetolerance="10"
     inkscape:pageopacity="0"
     inkscape:pageshadow="2"
     inkscape:window-width="640"
     inkscape:window-height="480"
     id="namedview1339"
     showgrid="false"
     inkscape:zoom="1.7354624"
     inkscape:cx="128"
     inkscape:cy="128"
     inkscape:current-layer="svg1337" />
  <desc
     id="desc1321">Created with Fabric.js 1.7.22</desc>
  <g
     transform="matrix(.87 0 0 .87 128 128)"
     fill="#666"
     id="g1335"
     style="fill:#999999">
    <g
       transform="matrix(3.22,0,0,3.22,-144.9,-144.9)"
       fill="#666"
       stroke-linecap="round"
       id="g1333"
       style="fill:#999999">
      <path
         d="m75.546 78.738h-61.091c-7.971 0-14.455-6.484-14.455-14.455v-38.567c0-7.97 6.485-14.455 14.455-14.455h61.091c7.97 0 14.454 6.485 14.454 14.455v38.567c0 7.971-6.484 14.455-14.454 14.455zm-61.091-63.25c-5.64 0-10.228 4.588-10.228 10.228v38.567c0 5.64 4.588 10.229 10.228 10.229h61.091c5.64 0 10.228-4.589 10.228-10.229v-38.567c0-5.64-4.588-10.228-10.228-10.228h-61.091z"
         id="path1323"
         style="fill:#999999" />
      <path
         d="m11.044 25.917c10.804 10.528 21.608 21.055 32.412 31.583 2.014 1.962 5.105-1.122 3.088-3.088-10.804-10.527-21.608-21.055-32.412-31.582-2.014-1.963-5.105 1.122-3.088 3.087z"
         id="path1325"
         style="fill:#999999" />
      <path
         d="m46.544 57.5c10.804-10.527 21.608-21.055 32.412-31.582 2.016-1.965-1.073-5.051-3.088-3.088-10.804 10.527-21.608 21.055-32.412 31.582-2.016 1.965 1.073 5.051 3.088 3.088z"
         id="path1327"
         style="fill:#999999" />
      <path
         d="m78.837 64.952c-7.189-6.818-14.379-13.635-21.568-20.453-2.039-1.933-5.132 1.149-3.088 3.088 7.189 6.818 14.379 13.635 21.568 20.453 2.039 1.933 5.132-1.15 3.088-3.088z"
         id="path1329"
         style="fill:#999999" />
      <path
         d="m14.446 68.039c7.189-6.818 14.379-13.635 21.568-20.453 2.043-1.938-1.048-5.022-3.088-3.088-7.189 6.818-14.379 13.635-21.568 20.453-2.043 1.938 1.048 5.023 3.088 3.088z"
         id="path1331"
         style="fill:#999999" />
    </g>
  </g>
</svg>
